<?xml version="1.0" standalone="no"?>
<!DOCTYPE svg PUBLIC "-//W3C//DTD SVG 20010904//EN"
 "http://www.w3.org/TR/2001/REC-SVG-20010904/DTD/svg10.dtd">
<svg version="1.0" xmlns="http://www.w3.org/2000/svg"
 width="512.000000pt" height="512.000000pt" viewBox="0 0 512.000000 512.000000"
 preserveAspectRatio="xMidYMid meet">

<g transform="translate(0.000000,512.000000) scale(0.100000,-0.100000)"
fill="#000000" stroke="none">
<path d="M4612 5097 c-23 -24 -30 -81 -12 -92 18 -11 11 -20 -35 -44 l-45 -24
-40 37 c-43 39 -56 42 -93 25 -47 -21 -56 -79 -20 -120 13 -15 9 -20 -39 -47
l-53 -31 -30 28 c-40 39 -68 45 -104 26 -39 -20 -50 -59 -27 -98 16 -28 15
-30 -1 -43 -10 -7 -21 -14 -24 -14 -8 0 -29 -48 -29 -65 0 -8 17 -33 37 -56
l37 -40 -627 -627 c-553 -553 -627 -631 -627 -657 0 -77 76 -102 135 -45 l31
30 74 -75 75 -75 -168 -167 -167 -168 -74 74 -75 75 34 38 c44 48 46 88 9 117
-44 34 -71 27 -138 -37 l-61 -58 -1260 -553 c-693 -304 -1268 -562 -1277 -573
-15 -17 -18 -40 -18 -147 1 -96 4 -131 16 -146 12 -16 139 -51 612 -170 l597
-150 150 -597 c119 -473 154 -600 170 -612 15 -12 50 -15 146 -16 107 0 130 3
147 18 23 20 572 1265 572 1297 0 12 -9 34 -20 47 l-19 25 37 87 c33 78 39 86
64 86 15 0 38 10 52 23 16 14 97 187 235 502 l210 479 785 785 785 785 40 -37
c23 -20 48 -37 56 -37 17 0 65 21 65 29 0 3 7 14 14 24 14 17 16 18 40 2 36
-24 82 -12 102 26 18 36 11 64 -27 104 l-28 30 31 53 c27 48 32 52 47 39 41
-36 99 -27 120 20 17 37 14 50 -25 93 l-37 40 24 45 c24 46 33 53 44 35 3 -5
21 -10 40 -10 24 0 39 7 54 26 28 36 26 66 -5 104 l-27 31 28 59 c18 37 26 66
22 82 -9 34 -209 228 -235 228 -12 0 -46 -12 -76 -27 l-54 -26 -32 26 c-39 33
-79 35 -108 4z m-312 -902 l-85 -85 -75 75 -75 75 85 85 85 85 75 -75 75 -75
-85 -85z m-272 -128 l72 -72 -95 -95 -95 -95 -75 75 -75 75 92 92 c51 51 95
93 98 93 3 0 38 -33 78 -73z m-300 -300 l72 -72 -95 -95 -95 -95 -75 75 -75
75 92 92 c51 51 95 93 98 93 3 0 38 -33 78 -73z m-328 -472 l-95 -95 -75 75
-75 75 95 95 95 95 75 -75 75 -75 -95 -95z m-1370 -1270 l145 -145 -55 -55
-55 -55 -147 147 -148 148 52 52 c29 29 55 53 58 53 3 0 70 -65 150 -145z"/>
</g>
</svg>
